<?xml version="1.0" encoding="UTF-8"?>
<svg id="_x2018_лой_x5F_1" xmlns="http://www.w3.org/2000/svg" version="1.1" viewBox="0 0 3200 2000">
  <!-- Generator: Adobe Illustrator 30.2.1, SVG Export Plug-In . SVG Version: 2.1.1 Build 1)  -->
  <defs>
    <style>
      .st0 {
        fill: #e8945b;
      }

      .st1 {
        fill: #94b0ed;
      }

      .st2 {
        fill: #ffb27d;
      }

      .st3 {
        opacity: .2;
      }

      .st3, .st4, .st5 {
        fill: #b7d1f8;
      }

      .st4, .st6 {
        opacity: .5;
      }

      .st7 {
        fill: #aec3ff;
      }

      .st8 {
        fill: #7b97ef;
      }

      .st9 {
        fill: #6178db;
      }

      .st10 {
        fill: #ed975d;
      }

      .st11 {
        fill: #7389e5;
      }

      .st12 {
        fill: #bdd1ff;
      }

      .st13 {
        fill: #2a4977;
      }

      .st14 {
        fill: #ed7d2b;
      }

      .st15 {
        fill: #ffac6e;
      }

      .st16 {
        fill: #82b378;
      }

      .st17 {
        fill: #548ee2;
      }

      .st18 {
        fill: #8c9df4;
      }

      .st19 {
        fill: #fff;
      }

      .st20 {
        fill: #fcecdb;
      }

      .st21 {
        fill: #758bea;
      }

      .st22 {
        fill: #2c3a64;
      }

      .st23 {
        fill: #ed985f;
      }

      .st6, .st24 {
        fill: #d1e3fd;
      }

      .st25 {
        fill: #f4d2b8;
      }

      .st26 {
        fill: #cadcff;
      }

      .st27 {
        fill: #cfdfff;
      }

      .st28 {
        fill: #163560;
      }

      .st29 {
        fill: #699dee;
      }

      .st30 {
        fill: #f99746;
      }

      .st31 {
        fill: #a4b5ff;
      }

      .st32 {
        fill: #233862;
      }

      .st33 {
        fill: #ebf3fa;
      }

      .st34 {
        fill: #96aae2;
      }

      .st35 {
        fill: #a8d29f;
      }

      .st36 {
        fill: #f2ccaa;
      }

      .st37 {
        fill: #dfebfd;
      }

      .st38 {
        fill: #2b478b;
      }
    </style>
  </defs>
  <rect class="st19" width="3200" height="2000"/>
  <g>
    <path class="st33" d="M2915.4,1732.9c-159.4,0-2481.1.5-2482.5-3.2l-.2-.5s-.2-.5-.2-.7c-.9-1.8-450.5-110.7-92.2-666.6C470.7,859.6,101.1,94.3,1116.9,395.4c208.3,61.8,385.1-36.9,424.3-72.5,93-84.6,219.6-121,344-129.3,246.5-16.3,523.8,75.5,667,209.7,28.8,27,159.9,166.8,56.6,359-65.2,121.3,208,237.2,305.1,375.8,246.8,352.2,3.8,590.3,1.6,594.8Z"/>
    <rect class="st5" x="1951.5" y="474.6" width="315.1" height="379.4"/>
    <rect class="st6" x="1917.7" y="924.2" width="125" height="52.4"/>
    <rect class="st6" x="1934.3" y="1050.8" width="125" height="52.5"/>
    <rect class="st4" x="1990.1" y="987.4" width="125" height="52.4"/>
    <g>
      <g>
        <g>
          <path class="st20" d="M2362.6,1273.2h53.1c4.4,0,7.9,3.5,7.9,7.9v4.7c0,4.5-3.6,8.1-8.1,8.1h-53v-20.7h0Z"/>
          <path class="st29" d="M2469.1,1281.7v3.1c0,1.7-.4,3.2-1.1,4.6-1.4,2.7-4.1,4.5-7.1,4.5h-99.9c-.7,0-1.2-.6-1.2-1.3v-.5c0-.7.5-1.3,1.2-1.3h60.9c.3-.4.6-.9.9-1.4.6-1.2.9-2.5.9-3.9v-3.9c0-.7,0-1.4-.2-2.1-.3-1.1-.8-2.2-1.4-3.1h-61c-.7,0-1.2-.6-1.2-1.3v-.5c0-.7.5-1.3,1.2-1.3h100.4c3.5,0,6.5,2.6,7.4,6.2.2.7.3,1.5.3,2.3Z"/>
          <path class="st17" d="M2468.8,1279.3h-45.5c-.3-1.1-.8-2.2-1.4-3.1h-61c-.7,0-1.2-.6-1.2-1.3v-.5c0-.7.5-1.3,1.2-1.3h100.4c3.5,0,6.5,2.6,7.4,6.2Z"/>
        </g>
        <polygon class="st25" points="2362.6 1283.5 2370 1283.8 2362.6 1284 2362.6 1283.5"/>
        <polygon class="st25" points="2362.6 1286.7 2380.2 1287.1 2362.6 1287.3 2362.6 1286.7"/>
      </g>
      <g>
        <g>
          <g>
            <path class="st14" d="M2367.8,1293.8h56.4c4.4,0,7.9,3.5,7.9,7.9v.7c0,4.1-3.3,7.4-7.4,7.4h-56.9v-16.1h0Z" transform="translate(4799.9 2603.6) rotate(180)"/>
            <path class="st20" d="M2421.5,1293.8h64.3c4.3,0,7.7,3.5,7.7,7.7v.8c0,4.2-3.4,7.6-7.6,7.6h-64.4v-16.1h0Z" transform="translate(4914.9 2603.6) rotate(180)"/>
            <path class="st14" d="M2417.2,1307.4h78.4c.6,0,1.1.5,1.1,1.1h0c0,.7-.5,1.3-1.1,1.3h-78.4c-.6,0-1.1-.5-1.1-1.1h0c0-.7.5-1.3,1.1-1.3Z" transform="translate(4912.8 2617.3) rotate(-180)"/>
            <path class="st14" d="M2417.2,1293.8h78.4c.6,0,1.1.5,1.1,1.1h0c0,.7-.5,1.3-1.1,1.3h-78.4c-.6,0-1.1-.5-1.1-1.1h0c0-.7.5-1.3,1.1-1.3Z" transform="translate(4912.8 2589.9) rotate(-180)"/>
          </g>
          <polygon class="st25" points="2493.4 1301.8 2484.7 1302.1 2493.4 1302.2 2493.4 1301.8"/>
          <polygon class="st25" points="2493.4 1298.1 2472.7 1298.4 2493.4 1298.5 2493.4 1298.1"/>
        </g>
        <g>
          <path class="st30" d="M2472.9,1298.3s.9.7,1.2,1.8c0,.2,0,.4,0,.6,0,1.5,0,4.9,0,4.9l2.6-1.7,2.6,1.7v-4.6c0-.9-.2-1.7-.6-2.3-.2-.3-.4-.5-.7-.5h-5.2Z"/>
          <path class="st14" d="M2472.9,1298.3s.9.7,1.2,1.8h5.3c0,0-.2-1.6-1.3-1.8h-5.2Z"/>
        </g>
      </g>
    </g>
    <g>
      <g>
        <path class="st16" d="M2577.7,1170.9s22.4-26.2,1.4-42.8c0,0-15.4-9.3-27.9-8.6,0,0,17.8,29.8,12,32.8-5.8,3-17.4-34.6-17.4-34.6,0,0-35-3.4-46.3,2,0,0,29.9,24.5,23.6,26-6.3,1.5-38.6-22.6-38.6-22.6,0,0-32.6,5.5-30.8,25.4,1.7,19.9,13,26,17.9,25.5,4.9-.5,33.8-11.5,34.4-7.5.6,4-16.7,17.3-28.9,17.9,0,0,23,25.3,38.2,18,15.3-7.3,16.6-18.9,26.1-23.2,9.5-4.3,17.6-4.3,13.7,0-3.9,4.4-21.2,8.7-26.6,18.4-5.4,9.6-10.3,16.1,5.5,13.7,15.8-2.4,41.5-13.9,42.6-27.2l1.1-13.2Z"/>
        <g>
          <path class="st16" d="M2469.6,1149s88.5-3.4,108,21.9c0,0,4.3,12.9,17.6,24.7l2.1,5.6s-15.3-16.2-20.8-17.1c0,0,8.6-31.4-106.9-35.1Z"/>
          <path class="st16" d="M2595.3,1195.6s19,14,20.3,39.2l-3.4.3s-6.1-26-17-36.1c-11-10.2.2-3.4.2-3.4Z"/>
        </g>
      </g>
      <g>
        <path class="st35" d="M2656.1,1137.9s-35.7-20-19-47.1c0,0,13.3-16.7,27.6-20.9,0,0-7.6,40.5,0,41.4,7.6,1,5.2-45.7,5.2-45.7,0,0,37.6-18.1,52.4-16.7,0,0-23.3,39.5-15.7,38.6,7.6-1,33.8-40.9,33.8-40.9,0,0,38.6-7.1,44.8,15.7,6.2,22.9-3.8,34.3-9.5,35.7s-42.4,1-41.4,5.7c1,4.8,25.7,12.4,39.5,8.1,0,0-15.2,37.6-35.2,35.7-20-1.9-26.2-14.3-38.6-15.2-12.4-1-21.4,2.4-15.2,5.7,6.2,3.3,27.1,1.1,37.1,9.6,10,8.5,18.1,13.7-.5,17.5-18.6,3.8-51.9,1.4-58.6-12.9l-6.7-14.3Z"/>
        <g>
          <path class="st16" d="M2767.5,1069.4s-100,32.4-111.4,68.6c0,0,.5,16.2-9.5,34.8v7.1s10.5-24.3,16.2-27.6c0,0-22.4-31.4,104.7-82.8Z"/>
          <path class="st16" d="M2646.6,1172.7s-15.4,23.4-6.6,51.9l4-1.1s-3.8-31.4,4.2-47.2c8.1-15.8-1.6-3.7-1.6-3.7Z"/>
        </g>
      </g>
      <g>
        <path class="st35" d="M2599.3,1110.3s47.1-26.4,25.1-62.1c0,0-17.6-22-36.4-27.6,0,0,10,53.3,0,54.6-10,1.3-6.9-60.2-6.9-60.2,0,0-49.6-23.8-69-22,0,0,30.8,52.1,20.7,50.8-10-1.3-44.6-54-44.6-54,0,0-50.8-9.4-59,20.7-8.2,30.1,5,45.2,12.6,47.1,7.5,1.9,55.9,1.3,54.6,7.5-1.3,6.3-33.9,16.3-52.1,10.7,0,0,20.1,49.6,46.4,47.1,26.4-2.5,34.5-18.8,50.8-20.1,16.3-1.3,28.2,3.1,20.1,7.5-8.2,4.4-35.8,1.4-49,12.6-13.2,11.2-23.8,18.1.6,23.1,24.5,5,68.4,1.9,77.2-16.9l8.8-18.8Z"/>
        <g>
          <path class="st16" d="M2452.5,1020s131.8,42.7,146.8,90.4c0,0-.6,21.3,12.6,45.8v9.4s-13.8-32-21.3-36.4c0,0,29.5-41.4-138.1-109.2Z"/>
          <path class="st16" d="M2611.9,1156.2s20.3,30.9,8.7,68.4l-5.2-1.4s5.1-41.4-5.6-62.2c-10.6-20.8,2-4.8,2-4.8Z"/>
        </g>
      </g>
      <path class="st30" d="M2600.9,1306.1c-50.9,0-92.2-41.3-92.2-92.2h184.4c0,50.9-41.3,92.2-92.2,92.2Z"/>
      <path class="st15" d="M2628.1,1305.4c-3.8.5-7.6.7-11.5.7-50.9,0-92.2-41.3-92.2-92.2h22.9c0,47,35.2,85.9,80.7,91.5Z"/>
      <path class="st14" d="M2507.4,1310.7h186.9c0-6.3-5.1-11.4-11.4-11.4h-164.2c-6.3,0-11.4,5.1-11.4,11.4h0Z"/>
      <rect class="st14" x="2506.6" y="1213.9" width="189.5" height="2.8" transform="translate(5202.8 2430.5) rotate(180)"/>
    </g>
    <g>
      <path class="st2" d="M1864.5,965.8s18-12.6,32.9-10.6c14.8,1.9,45.8-17.4,50.3-25.8,4.5-8.4-32.2,5.2-52.2-2.6-13.6-5.2-32.7,16-45.1,19.5-12.4,3.5,14.2,19.5,14.2,19.5Z"/>
      <path class="st30" d="M1672.3,965.5c12.5,23.2,28.1,46.6,44.1,65.7h0c16.7,20,33.8,35.2,48.3,40.3h.1c.8.3,1.5.5,2.2.7,0,0,0,0,.1,0h0c2.9.8,5.7,1.2,8.4,1.1,47.4-2.1,97.4-103.9,97.4-103.9,0,0-1.3-12.1-10.5-20.6-8-7.4-14.2-9.4-14.2-9.4,0,0-51.1,52.4-63.6,56.2-7.8,2.4-18.2-34.3-32.9-80.3-14.8-46-66.7-57.3-66.7-57.3,0,0-52.6,33.3-12.6,107.3Z"/>
      <path class="st14" d="M1716.3,1031.2h0c16.7,20,33.8,35.2,48.3,40.3h.1s2.2.7,2.2.7h.1s0,0,0,0c-.5-.3-16-8.4-18.4-23.3-2.5-15.2,13.6-27.7-26.8-51.2-23.6-13.7-5.5,33.4-5.5,33.4Z"/>
      <path class="st13" d="M1753.3,1728.9h-111.1c-8-5.4,2.1-58.2,2.1-58.2,0,0,30.3-11.5,35.6,11.9,5.3,23.4,38.6,30.8,56.3,33.7,12.1,2,15.9,8.6,17.1,12.6Z"/>
      <path class="st38" d="M1583.9,1181.6s3.5,64.8,7.9,140c3.2,53.9,6.7,113,9.8,157.4.4,5.9.8,11.5,1.2,16.8.1,1.6.2,3.3.4,4.9,8,99.4,34.6,186.4,34.6,186.4,31.2,6.6,45.4-5.5,45.4-5.5,0,0,21.5-252.3,29.5-354.1,5.9-74.9,10.9-184,10.9-184l-139.6,38.1Z"/>
      <path class="st32" d="M1591.7,1321.6c3.2,53.9,6.7,113,9.8,157.4,20.4-48.2,62.2-236,62.2-236l-72,78.7Z"/>
      <path class="st13" d="M1588.5,1728.9h-111.1c-8-5.4,2.1-58.2,2.1-58.2,0,0,30.3-11.5,35.6,11.9,5.3,23.4,38.6,30.8,56.3,33.7,12.1,2,15.9,8.6,17.1,12.6Z"/>
      <path class="st38" d="M1693.3,1168.7s-79.4,197.6-104.7,272.5c-18.1,53.3-69,240.5-69,240.5,0,0-22.2,6.7-40.8-6.3,0,0-19-191.2,19.3-245.1,20.3-28.6,5-297.3,87.4-299.6,82.4-2.3,107.8,38.1,107.8,38.1Z"/>
      <path class="st30" d="M1530.7,1105.2c.3,28.1.6,48.7.6,53.9-.2,17,10.6,20.8,21.9,23.4,0,0,10.4,2.2,23.4,4.4,12.8,2.1,28.2,4.3,39.1,4.2,55.7-.4,102.4-16.9,102.4-16.9,10.5,0,15.3-16.2,17-38.9,1.2-15.3-3.6-168.2-4.2-206.4-.4-27.4-15.4-52.7-19.6-56.4-38.9-34.4-153.7-30.1-174.4-6.3-5.1,5.9-6.6,62.5-6.8,124.5-.1,39.9.3,82,.7,114.3Z"/>
      <path class="st2" d="M1599.7,852.8c14.7,15.9,63.9,13.5,62.4-.3-.2-1.7-.5-11.9-.7-13.4-.1-1.3-.2-2.5-.3-3.7-.3-3.4-.6-6.4-.8-9.1-.7-7.6-.9-11.7-.9-11.7h0c-1.4-.4-33.1-9.4-48.8-13.1-5.3-1.3-8.8-1.9-8.7-1.4,4.8,35.4-6.9,47.6-2.1,52.8Z"/>
      <path class="st10" d="M1608.9,811.9s13.2,13.4,51.4,14.4c-.7-7.6-.9-11.7-.9-11.7h0c-1.4-.4-33.1-9.4-48.8-13.1-2.8,1.1.9,8.5-1.7,10.4Z"/>
      <path class="st2" d="M1669.1,812.7s-9.7,3.5-22,5.1c-18,2.4-41.7,1-49.2-20.8-12.5-36.7-28.6-58.7,8.3-73.7,19.8-8,32.4-8.4,41-5.4,7.5,2.6,11.9,7.9,15.2,13.1,7.2,11.2,21.6,75.2,6.7,81.6Z"/>
      <path class="st28" d="M1659.6,702.6c13.2,8.7,8.9,28.9-6.7,31.7-9.3,1.6-17.1,2-21.6,4-9.2,4.1-17.1,8.4-14.9,22.6.7,4.8,3.1,10.7-9.4,7.8-2-.5-3.5-.3-4.5.3-5.2,3.1,1.4,17.9,3.4,21.2,0,0,2.9,10.7-3.5,15.8-.8.6-13.3,6.1-43.4-40-4.7-7.2-9.3-23.5-1.9-39.2,7.3-15.7,27.7-35.6,66.1-35.6s25,4,36.4,11.5Z"/>
      <path class="st19" d="M1669.4,789s.8,4.8-10.3,8.5c0,0-9.3,3.2-11-1.7,0,0,7.4-7,21.2-6.9Z"/>
      <path class="st14" d="M1530.7,1105.2c5.6,26.1,14.7,35.1,19.8,25.4,18-34,17.7-48.3,10-72.5-7.8-24.1,19.5-61.9,0-78-19.1-15.7-30,9.6-30.5,10.8-.1,39.9.3,82,.7,114.3Z"/>
      <path class="st2" d="M1531.6,1101.8s13.2,21.6,21.9,20.8c8.7-.8,20.3-4,27.1,2.4,6.8,6.4,17.6,23.1,14.6,27.5-3,4.4-15.3.5-24-4.3-8.8-4.8-22.6,2.4-30-3.1-7.4-5.5-25-27.3-25-27.3l15.5-16Z"/>
      <path class="st30" d="M1536.8,866.4s-109.6,103.2-95.4,171.8c6.5,31.3,26.6,57.7,80.3,100.4,0,0,25.4-17.5,31-31.8,0,0-48.7-68.6-46.8-80.3,2.3-14.3,35.5-50.1,47.5-55.7,11.9-5.6,10.8-92.4-16.5-104.4Z"/>
      <path class="st2" d="M1553.5,1122.7s11.6-5.1,15.3-7.2c3.7-2.2,2.9,1.3,1.8,3.1-1.1,1.8-4.2,5.7-8.8,6.1-4.5.4-8.3-2-8.3-2Z"/>
      <path class="st2" d="M1883.6,927.4s30.7-10.9,30.8-7.8c.1,3.1-12.9,13.3-12.9,13.3l-17.9-5.5Z"/>
    </g>
    <path class="st21" d="M2391.3,1315.9v10.5c0,3.7,1,6.7,2.3,6.7l339,.7c1.3,0,2.3-3,2.4-6.7v-10.5c0-3.7-1-6.7-2.3-6.7l-339-.7c-1.3,0-2.3,3-2.4,6.7Z"/>
    <path class="st27" d="M2357.3,1315.8v10.5c0,3.7,1,6.7,2.3,6.7l293.8.6c1.3,0,2.3-3,2.4-6.7v-10.5c0-3.7-1-6.7-2.3-6.7l-293.8-.6c-1.3,0-2.3,3-2.4,6.7Z"/>
    <rect class="st18" x="2443.5" y="1333.5" width="271.6" height="395.9" transform="translate(5155.5 3068.2) rotate(-179.9)"/>
    <rect class="st12" x="2367.4" y="1333.3" width="271.6" height="395.9" transform="translate(5003.3 3067.7) rotate(-179.9)"/>
    <g>
      <path class="st26" d="M2267.4,580.1h-10.3v-94.6h-295.7v359.1h295.7v-174h10.3c14.4,0,26-11.7,26-26v-38.4c0-14.4-11.7-26-26-26ZM2276.1,644.6c0,4.8-3.9,8.7-8.7,8.7h-10.3v-55.8h10.3c4.8,0,8.7,3.9,8.7,8.7v38.4Z"/>
      <path class="st7" d="M2080.3,758c0-3.5.6-6.7,1.8-9.7,1.2-3,2.9-5.5,5.1-7.7,2.2-2.2,4.9-3.9,8-5.1,3.1-1.2,6.6-1.8,10.5-1.8s7.4.6,10.6,1.8c3.2,1.2,5.9,2.9,8.1,5.1,2.2,2.2,3.9,4.7,5.1,7.7,1.2,3,1.8,6.2,1.8,9.7s-.6,6.7-1.8,9.6c-1.2,2.9-2.9,5.4-5.1,7.6-2.2,2.2-4.9,3.9-8.1,5.1-3.2,1.2-6.7,1.8-10.6,1.8s-7.4-.6-10.5-1.8c-3.1-1.2-5.8-2.9-8-5.1-2.2-2.2-3.9-4.7-5.1-7.6-1.2-2.9-1.8-6.1-1.8-9.6ZM2124.8,708.7h-38l-5.4-159.8h48.8l-5.4,159.8Z"/>
      <g>
        <path class="st30" d="M2315.6,728.5l-27,8.5c-17.7,5.6-36.5-4.2-42.1-21.9l-7.8-24.8c-1.2-4,.9-8.2,4.9-9.4l72.7-23c5.1-1.6,10.5,1.2,12.1,6.3l7.8,24.8c5.2,16.6-4,34.3-20.6,39.6Z"/>
        <path class="st30" d="M2309.7,660c-2.7-8.4-8.7-14.9-16.2-18.3v3c0,2.6-.4,5.1-1.1,7.4,3.7,2.5,6.7,6.2,8.1,10.8,2.2,7,.5,14.4-4,19.6-2.4,2.8-5.6,5-9.4,6.2-3.8,1.2-7.6,1.2-11.2.3-6.7-1.7-12.3-6.7-14.5-13.7-.5-1.5-.8-3.1-.9-4.6-.5-6.7,2.3-13.2,7.4-17.4,1.9-1.6,4.2-2.9,6.7-3.7,1-1.4,1.6-3.1,1.6-5v-5.3c-1.4.2-2.8.6-4.3,1-6,1.9-11.1,5.6-14.7,10.2-5.9,7.6-8.1,17.8-5,27.6h0c1.1,3.5,2.8,6.7,5,9.5,5.2,6.7,13.2,10.9,21.6,11.6,3,.2,6,0,9.1-.7.7-.2,1.5-.4,2.2-.6.7-.2,1.4-.5,2.1-.8,2.9-1.2,5.5-2.7,7.8-4.6,9.3-7.6,13.5-20.4,9.7-32.5Z"/>
        <g>
          <path class="st22" d="M2299.5,687.4c2,6.4-1.5,13.2-7.9,15.3-6.4,2-13.2-1.5-15.3-7.9-2-6.4,1.5-13.2,7.9-15.3,6.4-2,13.2,1.5,15.3,7.9Z"/>
          <path class="st22" d="M2289.6,696.5h0c1.4-.4,2.9.3,3.3,1.7l6.1,19.3c.4,1.4-.3,2.9-1.7,3.3h0c-1.4.4-2.9-.3-3.3-1.7l-6.1-19.3c-.4-1.4.3-2.9,1.7-3.3Z"/>
        </g>
      </g>
    </g>
    <rect class="st24" x="1667.2" y="325.3" width="125" height="52.4"/>
    <rect class="st24" x="1804" y="325.3" width="125" height="52.4"/>
    <rect class="st24" x="2360.3" y="510.2" width="125" height="52.4"/>
    <rect class="st24" x="2135.6" y="336" width="125" height="52.5"/>
    <rect class="st24" x="1771.4" y="678.8" width="125" height="52.5"/>
    <rect class="st24" x="1683.9" y="451.9" width="125" height="52.4"/>
    <rect class="st5" x="1739.7" y="388.5" width="125" height="52.4"/>
    <rect class="st5" x="2421.3" y="571.2" width="125" height="52.4"/>
    <rect class="st3" x="851.1" y="476" width="125" height="52.4"/>
    <rect class="st4" x="799.6" y="413.3" width="125" height="52.4"/>
    <g>
      <g>
        <rect class="st30" x="1304.1" y="533.2" width="138.1" height="61.9" transform="translate(-81.9 269.6) rotate(-10.9)"/>
        <g>
          <path class="st19" d="M1341.2,566.1c-5-2.2-7.2-8-5-13,2.2-5,8-7.2,13-5,5,2.2,7.2,8,5,13-2.2,5-8,7.2-13,5ZM1348.2,550.4c-3.7-1.6-8,0-9.6,3.7-1.6,3.7,0,8,3.7,9.6,3.7,1.6,8,0,9.6-3.7,1.6-3.7,0-8-3.7-9.6Z"/>
          <rect class="st19" x="1334.1" y="563" width="3.1" height="30.6" transform="translate(348 -490.8) rotate(23.9)"/>
          <rect class="st19" x="1331.5" y="590.4" width="6.6" height="1.7" transform="translate(353.2 -489.4) rotate(23.9)"/>
          <rect class="st19" x="1333.2" y="586.5" width="4.2" height="1.7" transform="translate(351.6 -489.8) rotate(23.9)"/>
          <rect class="st19" x="1334.7" y="583.1" width="5.5" height="1.7" transform="translate(350.5 -491.1) rotate(23.9)"/>
        </g>
      </g>
      <g>
        <path class="st9" d="M1582.7,644.6l-177.1-.4c-8.1,0-14.8-6.7-14.8-14.8l.4-170.9c0-8.1,6.7-14.8,14.8-14.8l177.1.4c8.1,0,14.8,6.7,14.8,14.8l-.4,170.9c0,8.1-6.7,14.8-14.8,14.8Z"/>
        <path class="st37" d="M1575,635.9l-161.7-.3c-7.4,0-13.5-6.1-13.5-13.5l.3-156.1c0-7.4,6.1-13.5,13.5-13.5l161.7.3c7.4,0,13.5,6.1,13.5,13.5l-.3,156.1c0,7.4-6.1,13.5-13.5,13.5Z"/>
        <g>
          <g>
            <path class="st9" d="M1490.2,470.9c0-2.4,1.9-4.3,4.3-4.3,2.4,0,4.3,1.9,4.3,4.3,0,2.4-1.9,4.3-4.3,4.3-2.4,0-4.3-1.9-4.3-4.3Z"/>
            <path class="st9" d="M1524.8,477c1.2-2.1,3.8-2.8,5.8-1.7,2.1,1.2,2.8,3.8,1.7,5.8-1.2,2.1-3.8,2.8-5.8,1.7-2.1-1.2-2.8-3.8-1.6-5.8Z"/>
            <path class="st9" d="M1554.3,500.6c2-1.3,4.6-.7,5.9,1.3,1.3,2,.7,4.6-1.3,5.9-2,1.3-4.6.7-5.9-1.3-1.3-2-.7-4.6,1.3-5.9Z"/>
            <path class="st9" d="M1568.9,537c2.4,0,4.3,1.9,4.3,4.3,0,2.4-1.9,4.3-4.3,4.3-2.4,0-4.3-1.9-4.3-4.3,0-2.4,1.9-4.3,4.3-4.3Z"/>
            <path class="st9" d="M1561.3,579.2c1.7,1.7,1.7,4.4,0,6.1-1.7,1.7-4.4,1.7-6.1,0-1.7-1.7-1.7-4.4,0-6.1,1.7-1.7,4.4-1.7,6.1,0Z"/>
            <path class="st9" d="M1534.4,606.1c1.7,1.7,1.7,4.4,0,6.1-1.7,1.7-4.4,1.7-6.1,0-1.7-1.7-1.7-4.4,0-6.1,1.7-1.7,4.4-1.7,6.1,0Z"/>
            <path class="st9" d="M1489.9,619.9c0-2.4,1.9-4.3,4.3-4.3,2.4,0,4.3,1.9,4.3,4.3,0,2.4-1.9,4.3-4.3,4.3-2.4,0-4.3-1.9-4.3-4.3Z"/>
          </g>
          <g>
            <path class="st9" d="M1464.1,476.9c-1.1-2.1-3.7-2.8-5.8-1.7-2.1,1.1-2.8,3.7-1.7,5.8,1.1,2.1,3.7,2.8,5.8,1.7,2.1-1.1,2.8-3.7,1.7-5.8Z"/>
            <path class="st9" d="M1434.5,500.3c-2-1.3-4.6-.7-5.9,1.3-1.3,2-.7,4.6,1.3,5.9,2,1.3,4.6.7,5.9-1.3,1.3-2,.7-4.6-1.3-5.9Z"/>
            <path class="st9" d="M1419.7,536.7c-2.4,0-4.3,1.9-4.3,4.3,0,2.4,1.9,4.3,4.3,4.3,2.4,0,4.3-1.9,4.3-4.3,0-2.4-1.9-4.3-4.3-4.3Z"/>
            <path class="st9" d="M1427.1,578.9c-1.7,1.7-1.7,4.4,0,6.1,1.7,1.7,4.4,1.7,6.1,0,1.7-1.7,1.7-4.4,0-6.1-1.7-1.7-4.4-1.7-6.1,0Z"/>
            <path class="st9" d="M1453.9,605.9c-1.7,1.7-1.7,4.4,0,6.1,1.7,1.7,4.4,1.7,6.1,0,1.7-1.7,1.7-4.4,0-6.1-1.7-1.7-4.4-1.7-6.1,0Z"/>
          </g>
        </g>
        <g>
          <path class="st9" d="M1493.2,541.1c0-2.4,1.9-4.3,4.3-4.3,2.4,0,4.3,1.9,4.3,4.3,0,2.4-1.9,4.3-4.3,4.3-2.4,0-4.3-1.9-4.3-4.3Z"/>
          <rect class="st9" x="1470.8" y="513.8" width="53.5" height="1.2" transform="translate(980 2010.8) rotate(-89.9)"/>
          <rect class="st9" x="1493.1" y="528.2" width="36" height="3.5" transform="translate(-5.8 1042.9) rotate(-38)"/>
        </g>
      </g>
    </g>
    <path class="st28" d="M957.9,1134.9c0-10.3-8.4-18.7-18.7-18.7s-18.7,8.4-18.7,18.7,8.4,18.7,18.7,18.7,18.7-8.4,18.7-18.7Z"/>
    <g>
      <rect class="st18" x="485.1" y="557.1" width="553.5" height="1175.8"/>
      <rect class="st12" x="506.3" y="578.1" width="511.2" height="1151.6"/>
      <rect class="st7" x="554.9" y="997.4" width="428.7" height="303.4"/>
      <rect class="st7" x="554.9" y="1360.1" width="428.7" height="303.4"/>
      <g>
        <path class="st30" d="M974,1149.6l-23.9,7.6c-15.7,5-32.4-3.7-37.4-19.4l-7-22c-1.1-3.5.8-7.2,4.3-8.4l64.5-20.4c4.5-1.4,9.3,1.1,10.7,5.6l6.9,22c4.7,14.7-3.5,30.4-18.2,35.1Z"/>
        <path class="st30" d="M951.3,1122.4c-14.1,4.4-29.1-3.4-33.6-17.5-4.4-14.1,3.4-29.1,17.5-33.6s29.1,3.4,33.6,17.5c4.4,14.1-3.4,29.1-17.5,33.6ZM937.8,1079.6c-9.6,3-14.9,13.3-11.9,22.8,3,9.6,13.3,14.9,22.8,11.9s14.9-13.3,11.9-22.8c-3-9.6-13.3-14.9-22.8-11.9Z"/>
        <g>
          <path class="st28" d="M959.7,1113.2c1.8,5.7-1.4,11.8-7,13.5-5.7,1.8-11.8-1.4-13.5-7s1.4-11.8,7-13.5c5.7-1.8,11.8,1.4,13.5,7Z"/>
          <path class="st28" d="M951,1121.3h0c1.2-.4,2.5.3,2.9,1.5l5.4,17.2c.4,1.2-.3,2.5-1.5,2.9h0c-1.2.4-2.5-.3-2.9-1.5l-5.4-17.2c-.4-1.2.3-2.5,1.5-2.9Z"/>
        </g>
      </g>
      <rect class="st7" x="554.9" y="638.6" width="428.7" height="303.4"/>
      <g>
        <path class="st30" d="M690.3,681.5h142.7c7,0,12.7,5.7,12.7,12.7v37.9c0,7-5.7,12.7-12.7,12.7h-142.7c-7,0-12.7-5.7-12.7-12.7v-37.9c0-7,5.7-12.7,12.7-12.7Z"/>
        <g>
          <path class="st33" d="M731.1,715.6h-14.9v10.1h17.5v6.2h-25.2v-37.6h25.2v6.3h-17.4v9h14.9v6.1Z"/>
          <path class="st33" d="M751.7,707.3l7.1-13h8.9l-11,18.7,11.2,19h-9l-7.2-13.2-7.2,13.2h-9l11.2-19-11-18.7h8.9l7.1,13Z"/>
          <path class="st33" d="M780.1,731.9h-7.8v-37.6h7.8v37.6Z"/>
          <path class="st33" d="M814.9,700.6h-11.5v31.4h-7.8v-31.4h-11.4v-6.3h30.7v6.3Z"/>
        </g>
      </g>
    </g>
    <g>
      <path class="st28" d="M1304.6,804.5s-44.6-6.7-66.2,21.4c-21.6,28.1-12.5,55.4-48.8,58.5-36.2,3.1-42.5,17.5-34.8,37.5,7.7,20-37.6,20.7-47.4,47.9-9.8,27.2-4.9,73.9,64.1,61.3,69-12.5,94.3-54.4,126.2-43.2,32,11.2,77.3-21,61.2-40.8-16-19.8,9.8-17.6,7.7-62.6-2.1-45-31.5-80.9-62-79.9Z"/>
      <path class="st2" d="M1572.2,1055.3s12.4-13,22.2-15.5c10.8-2.8,26-5.4,27.6-1.9,1.9,4.1-17.4,11-20.1,15.5-2.7,4.6,1.6,4.2,9.1,3.6,7.5-.5,4.8,1.9,3.5,2.3-1.3.4-12.2,6-16.2,6.8-4,.8-16.1.3-26.1,2.3,0,0-2.8-8.4,0-13.1Z"/>
      <path class="st7" d="M1580.2,1058.3c-1.9,6.4-5,9.6-5,9.6,0,0-62,23.8-107,16.9-1.6-.2-3.1-.5-4.6-.8-8.3-1.7-17.1-3.9-25.9-6.3-37.7-10.2-75.7-24.4-75.7-24.4,0,0-.8-3.2-1.9-8.3-4.8-21.5-15.3-77.7,1.9-86.6,0,0,9.1,4,20.4,13,25.6,20.6,68.7,59.5,92.1,65.5,21.6,5.5,78.8,11,104.1,12.5,0,0,3,4.3,1.7,8.9Z"/>
      <path class="st1" d="M1403.2,1052.3c13.7,11,22.7,19.8,34.4,25.4-37.7-10.2-75.7-24.4-75.7-24.4,0,0-.8-3.2-1.9-8.3l4-8.1s17.2-2.2,39.2,15.4Z"/>
      <path class="st36" d="M1468.2,1084.8c-1.6-.2-3.1-.5-4.6-.8,2.5.2,4,.5,4.6.8Z"/>
      <path class="st38" d="M1125.6,1654s-16.5,15.1-13.3,25.8c3.2,10.7,18.1,17.9,20.1,31,2,13.1,10.1,20.2,17.3,20.2h34.6s5.3-9.2-7.6-12c-12.9-2.8-17.8-18.2-17-32.4.8-14.3-1.2-33.3-1.2-33.3l-27.4-6.3-5.6,7.1Z"/>
      <path class="st38" d="M1265.5,1661.6s-5.9,63.9,1.3,67.4l92.8-.2s0-10.7-14.9-13.1c-14.9-2.4-41.1-11.1-45.5-30.6-4.4-19.4-33.7-23.6-33.7-23.6Z"/>
      <path class="st7" d="M1345.5,1123.3l-58.2,45.7-55.5-39.5h0l-4.5-1.6s-9.1-4.5-11.9-26.2c-.3-2.7-2.3-25.5-4.2-48.5-2.1-24.8-4.1-49.9-4.1-49.9l35.4-52.6c74.4-15.7,119.4,7.7,119.4,7.7,0,0,3.5,27.7,9.1,67.2,5.7,39.5-25.6,97.7-25.6,97.7Z"/>
      <path class="st14" d="M1341.3,1136.2s26.8,83.3,28.5,111.7c1.7,28.4-51.2,402.9-53.3,416-2,12.3-17.3,20.2-17.3,20.2,0,0-7,4.1-17.1,1.3-13.9-3.9-18.3-8.6-18.3-8.6,0,0-20.8-267.1-7.9-362.5,12.9-95.4,13-177.9,13-177.9h72.4Z"/>
      <path class="st30" d="M1227.9,1133.7s-40.8,54.8-44.6,91.8c-3.8,37-6,167.1-14.1,203.2-8.1,36.1-37.9,105.6-37.9,218.2,0,0,3.1,6.5,12.7,9.9,3.1,1.1,7.2,2.2,11.1,3.1,7.9,1.8,16-2,19.6-9.3,20.1-40.6,84.3-171.3,87.6-198.5,2.3-19.2,22.6-146.4,66.8-221,10.6-17.9-6.5-89.2-6.5-89.2l-94.6-8.2Z"/>
      <path class="st2" d="M1283.3,962.1c-7.7-2.2-11.6-7.1-11.2-15.1.6-11.8,3.3-23.1,1.3-39.8l2.5.2,41.8,3.5s1.9,25.3,1.9,25.4c1.3,16.4.2,36.3-36.3,25.8Z"/>
      <path class="st0" d="M1317.7,910.9s.5,13,1.9,25.1c-23,1.9-37.4-17.6-43.6-28.6l41.8,3.5Z"/>
      <path class="st2" d="M1326.7,921.6s-54,7-57.9-26.7c-3.8-33.7-13.4-55.5,21-61.4,34.3-5.9,42.5,6.2,46.5,17.2,4,10.9,4.3,68.3-9.6,71Z"/>
      <path class="st28" d="M1314.3,829.8s-10.4,41.2-32.5,49.6c-22.1,8.4-32.6,3.4-32.6,3.4,0,0,15.9-15.8,16.8-40.4,0,0,35-30.2,48.3-12.6Z"/>
      <path class="st28" d="M1311,833.4s11.5,2.9,16.9,10.4c5.3,7.3,10.2,17.3,10.8,30.1,0,0,8.1-28.1-6.1-41.9-15.1-14.6-21.6,1.4-21.6,1.4Z"/>
      <g>
        <path class="st2" d="M1130,1196.7s4,15.3,7.5,17.6,13.8,15.7,11.2,21.4c-3.6,7.7-12.3,18.9-16.6,17.6-4.3-1.3-.3-12.4-8.3-20.5-4-4.1-13.4-11.6-12.7-19.6.8-8.1,2.8-18.2,2.8-18.2l16.2,1.6Z"/>
        <path class="st2" d="M1132.9,1205.9s11.6,8.1,17.1,10.6c5.5,2.4,3.3,4.4.5,4.4-3.2,0-6.5-.5-11.9-3.7-5.3-3.2-8.6-11.4-5.7-11.3Z"/>
      </g>
      <path class="st7" d="M1242.6,950.7s-32.3,7.8-53.6,27.8c-33.4,31.4-70.3,61.7-78.1,93.1-6.4,26.1-7.4,62.1,0,131.5,0,0,4.5,1.9,13.1,1.5,7.7-.3,11.2-3.1,11.2-3.1,0,0,16-90.9,29.1-115.7,6.7-12.7,97.7-60.9,97.7-60.9l-19.5-74.2Z"/>
      <path class="st1" d="M1231.9,1129.5h0l-4.5-1.6s-9.1-4.5-11.9-26.2c-.3-2.7-2.3-25.5-4.2-48.5,0,0,20.5-20.4,26.8-8.2,6.3,12.2-8.2,35.2-2.9,48.8,5.3,13.6,14.5,31.8-3.3,35.8Z"/>
      <path class="st32" d="M1345.5,1123.3s-10.7,8.5-32.1,8.9c-25.5.5-88.7-6.5-88.7-6.5,0,0-2.8,7.8-2.7,16.1,0,0,77.2,19.5,121.9,2.8,0,0,5.8-10.8,1.6-21.4Z"/>
      <path class="st19" d="M1307.9,1141c0-7.3,5.2-13.2,11.6-13.2s11.6,5.9,11.6,13.2-5.2,13.2-11.6,13.2-11.6-5.9-11.6-13.2ZM1311.8,1141c0,5.1,3.5,9.3,7.8,9.3s7.8-4.2,7.8-9.3-3.5-9.3-7.8-9.3-7.8,4.2-7.8,9.3Z"/>
    </g>
    <path class="st18" d="M2479,1367.8h44.5c2.2,0,3.9-1.7,3.9-3.8h0c0-2.2-1.8-3.9-3.9-3.9h-44.5c-2.2,0-3.9,1.7-3.9,3.8h0c0,2.2,1.8,3.9,3.9,3.9Z"/>
    <path class="st18" d="M2478.5,1612.3h44.5c2.2,0,3.9-1.7,3.9-3.8h0c0-2.2-1.8-3.9-3.9-3.9h-44.5c-2.2,0-3.9,1.7-3.9,3.8h0c0,2.2,1.8,3.9,3.9,3.9Z"/>
    <path class="st32" d="M262.9,1728.9h2780.3c1.8,0,3.3,1.5,3.3,3.3v1.4c0,1.8-1.5,3.3-3.3,3.3H262.9c-1.8,0-3.3-1.5-3.3-3.3v-1.4c0-1.8,1.5-3.3,3.3-3.3Z"/>
    <rect class="st38" x="2384.3" y="1457.4" width="237.5" height="129.2"/>
    <rect class="st8" x="2384.3" y="1467.6" width="237.5" height="114.9"/>
    <rect class="st31" x="2510.7" y="1570.5" width="111.5" height="6.1"/>
    <path class="st11" d="M2382.4,1344.2l242.5.5-.8,362.9-242.4-.5.7-362.9ZM2622.2,1347.3l-237.2-.5-.7,357.7,237.2.5.7-357.7Z"/>
    <path class="st2" d="M2366.6,1431.2c-5-4.9-14.2-12.8-17.1-22.2l-20.6,1.2s3.7,6,4.7,10.7c1.1,5.1,1,9.7,1.9,12.2,2.1,6.2,18.1,25.2,18.1,25.2,4.3-1.3-4.9-15-3.8-17.8.4-1.1,5.1,1,8,6.6,2.4,4.6,5.8,10.5,5.8,10.5,0,0,10.6,3,12,0,1.4-3-2.9-20.3-9-26.2Z"/>
    <g>
      <rect class="st34" x="2268.8" y="1453" width="237.5" height="137.1"/>
      <rect class="st26" x="2262.2" y="1453" width="237.5" height="137.1"/>
      <path class="st18" d="M2358.7,1473.4h44.5c2.2,0,3.9-1.7,3.9-3.8h0c0-2.2-1.8-3.9-3.9-3.9h-44.5c-2.2,0-3.9,1.7-3.9,3.8h0c0,2.2,1.8,3.9,3.9,3.9Z"/>
      <g>
        <path class="st38" d="M2397.7,1531.4c0-18,14.6-32.6,32.6-32.6s32.6,14.6,32.6,32.6-14.6,32.6-32.6,32.6-32.6-14.6-32.6-32.6Z"/>
        <g>
          <path class="st19" d="M2431.2,1527.7c-4.6-3.2-5.8-9.6-2.6-14.3,3.2-4.6,9.6-5.8,14.3-2.6,4.6,3.2,5.8,9.6,2.6,14.3-3.2,4.6-9.6,5.8-14.3,2.6ZM2441.4,1513.1c-3.4-2.4-8.2-1.5-10.6,1.9-2.4,3.4-1.5,8.2,1.9,10.6,3.4,2.4,8.2,1.5,10.6-1.9,2.4-3.4,1.5-8.2-1.9-10.6Z"/>
          <rect class="st19" x="2421.5" y="1523.2" width="3.3" height="31.8" transform="translate(1308.9 -1106.4) rotate(34.7)"/>
          <rect class="st19" x="2416.3" y="1551.3" width="6.9" height="1.8" transform="translate(1316 -1102.2) rotate(34.7)"/>
          <rect class="st19" x="2418.7" y="1547.4" width="4.3" height="1.8" transform="translate(1314.1 -1103.7) rotate(34.7)"/>
          <rect class="st19" x="2421" y="1544.4" width="5.7" height="1.8" transform="translate(1313.4 -1106.1) rotate(34.8)"/>
        </g>
      </g>
    </g>
    <g>
      <path class="st22" d="M2364,995.8s4.5-26.2-28.3-34.6c0,0-18.3-7.1-38.8,9.5-27.2,22.1-19,76.7-28.3,86.3-9.3,9.6-67-19.4-63.3,40.7,2.2,34.5,44.1,95.5,105.5,108,0,0,52.3-1.8,29.1-49.2-6.2-12.7-22.4-29.4-4.5-48.9,3.8-4.1,28.6-111.9,28.6-111.9Z"/>
      <path class="st38" d="M2018.1,1339.7c.3.5.5.9.8,1.4,6.3,11,20.9,38.1,36.9,67.6,7.6,14,15.5,28.6,23.1,42.4,13,23.7,24.8,44.8,31.7,56,7,11.3,12.2,19.3,14.3,22.5h0c.6,1,.8,2.2.7,3.3-.7,10-.5,20,.5,29.7,9.7,96.2,74.5,147.8,74.5,147.8l19.3,2.9s-27.3-101.1-35.3-158.3c-1.4-9.7-2-17.5-1.5-22.7,1.4-14.9-1.2-36.8-6.2-61.9-8.9-44.6-25.2-99.4-39.4-143.2-.9-2.8-28-100.9-28-100.9-22.8,19.9-105.8,28.1-105.8,28.1,0,0-14.1,34.2,14.6,85.3Z"/>
      <path class="st2" d="M2300.6,1142.2s-39-5.6-44.9,28.6c-5.9,34.2,14.9,143.6,20.3,157.5,12.4,32.1,55.4,84.9,55.4,84.9l18.1-4.3s-25.9-76.8-32.9-100.4c-6-20,1.4-153.6-16-166.4Z"/>
      <path class="st32" d="M2258.1,1728.9h-80.5s-1.9-12.3,2.3-21.6c4-8.9,9.8-9.2.7-23.2,5.1,5.3,21.6,7.4,33.2,5.9,1.4,2.3,9.2,17.8,14,21.2,5.3,3.8,28.7,2.4,30.3,17.7Z"/>
      <path class="st22" d="M2018.1,1339.7c.3.5.5.9.8,1.4,6.3,11,40.7,74.4,56.7,104-18.6-76.4-5.7-152.9-5.7-152.9l-51.8,47.5Z"/>
      <path class="st22" d="M2353.6,989.7c.8-2-48.1,15.7-50.7,18-24.4,21.6-21.8,53.6-9.4,55.4,7.9,1.1,4.9,14.1,4.9,14.1l92.9-27.4s-3.6-63.4-37.6-60.1Z"/>
      <path class="st7" d="M2306.5,1139s15.9,15.8,11.7,52.3c0,0-24.6,21.6-67.5,23.3,0,0,45.5-76.9,55.8-75.7Z"/>
      <path class="st38" d="M2080.8,1260.4l.3-15.1c-30,3.8-89-43.7-89-43.7,0,0-45.8,28.7-50.1,88.3-2.1,29.1-15.4,152.1-16.8,188.9-.5,13.3-.7,22.8-.8,26.6,0,0,0,0,0,0,0,1.2-.6,2.2-1.3,3.1-6.2,7.9-11.6,16.2-16.3,24.9-45.8,85.2-23.2,182.9-23.2,182.9l14.8,4.1s35.9-108.8,61.2-160.7c4.3-8.8,8.2-15.6,11.5-19.6,9.5-11.6,19.5-31.2,29.4-54.8,18.7-44.6,80.3-225.1,80.3-225.1Z"/>
      <path class="st32" d="M1949,1728.9h-80.5s-1.9-12.3,2.3-21.6c4-8.9,9.8-13.8,8.3-24.6,5.1,5.3,17.1,12.1,28.7,10.6,1.4,2.3,6.2,14.6,10.9,18,5.3,3.8,28.7,2.4,30.3,17.7Z"/>
      <path class="st7" d="M2243.3,1231.2c-11,.6.6,10.6-14.4,10.5-21.3,0-43.2-1-55.1,2.3-4.3,1.2-12.5,7.8-14.5,9.8-12.3,11.8-28.9,36.2-28.9,36.2-138.6-22.2-143.2-88-143.2-88,100.4-77.5,189.4-119.9,253.6-119.5,11,0,23.9,8.5,33.2,14,21.1,12.4,32.5,42.6,32.5,42.6,0,0-21.6,89.9-63.2,92.2Z"/>
      <path class="st1" d="M2228.9,1241.7c-21.3,0-43.2-1-55.1,2.3,3.2-70,42-118.5,42-118.5,0,0,11.5,89.5,13.1,116.3Z"/>
      <path class="st2" d="M2261.3,1118.7s-52.6-8.9-65.7,23.2c-13.2,32.1-1.2,167.8,3.1,182.1,7.8,26.1,51.3,103.1,51.3,103.1l19.6-3.6s-22.1-112.5-28.6-124.1c-10.1-18.2,34.4-164.4,20.2-180.7Z"/>
      <path class="st7" d="M2180.1,1185.2c0,.8,49,14.9,82,2.6,0,0,35.4-78.7-2.4-79.1-37.7-.3-61.1,8.9-64.1,26.6-3,17.7-15.6,49.9-15.6,49.9Z"/>
      <path class="st2" d="M2274,1096.4s8.5,56.5,32.5,42.6c-.3-2.7,4.4-10,9.9-17.3,7-9.3,15-18.8,15-18.8l-27-29.6-1.6-1.8c-11,15-20.7,20.2-28.8,24.8Z"/>
      <path class="st23" d="M2331.4,1103s-8.1,9.4-15,18.8c-17.3-13.6-14.7-36.6-11.9-48.4l27,29.6Z"/>
      <path class="st2" d="M2330.7,1116.2s-42.3-30.3-23.1-56.3c19.3-26.1,26.8-47.5,54.6-29.3,27.8,18.2,25.7,32,21.4,42.3-4.3,10.3-41.4,50.6-52.9,43.4Z"/>
      <path class="st22" d="M2393.1,1057.5c-.7-12.6-6.8-14.5-11.3-14.2-13.6-29.5-42-21.8-42-21.8-16.6,16.6-38,17.3-38,17.3,0,0,4.1,10.4,25.1,18.8,6.4,2.6,14,2.3,21.5.7-15.9,6.7-32,8.1-32,8.1,28.2,5.8,56.1-9.3,59.2-11.8,4.3,3,7.1,4.8,6.7,11.1-.7,9.5-6.9,18.1-12.1,25,0,0,24-14.4,23-33.3Z"/>
      <path class="st2" d="M2269.6,1423.5s1.8,6.5,4.8,11.2c3.1,4.8,9,18.1,10.1,25.6.1.9.4,3.9-1.8,3.2-1.8-.6-8.1-8.6-12-10.7-1.2-.6-2.6,0-3,1.2-.9,2.8-2.3,8-1.6,10.8,2.6,10.8.5,26.9-4.4,28-3.2.7-12.8-22-14.4-30.5-1.1-5.7-.6-18.5,1-28.8,1-6-3.8-16.3-3.8-16.3l25.1,6.2Z"/>
    </g>
  </g>
</svg>